<svg width="129" height="58" viewBox="0 0 129 58" fill="none" xmlns="http://www.w3.org/2000/svg">
<path d="M93.3412 3.15381H6.29541C4.63856 3.15381 3.29541 4.49696 3.29541 6.15381V51.8461C3.29541 53.503 4.63855 54.8461 6.29541 54.8461H93.2841C93.9895 54.8461 94.6691 54.6002 95.2097 54.1469C105.425 45.5802 124.581 29.6415 125.664 29.2509C126.749 28.8591 106.297 12.5068 95.1856 3.78832C94.658 3.37434 94.0118 3.15381 93.3412 3.15381Z" fill="#67989A" stroke="#0D4A4D" stroke-width="6"/>
<path d="M106.02 29.0803C106.02 32.9989 102.873 36.1606 99.01 36.1606C95.1467 36.1606 92 32.9989 92 29.0803C92 25.1617 95.1467 22 99.01 22C102.873 22 106.02 25.1617 106.02 29.0803Z" fill="white" stroke="#0D4A4D" stroke-width="2"/>
<path d="M19.2024 20.0913H24.8508C26.1321 20.0913 27.2141 20.2866 28.0969 20.6772C28.9875 21.0679 29.6633 21.646 30.1242 22.4116C30.593 23.1694 30.8274 24.103 30.8274 25.2124C30.8274 25.9937 30.6672 26.7085 30.3469 27.3569C30.0344 27.9976 29.5813 28.5444 28.9875 28.9976C28.4016 29.4429 27.6985 29.7749 26.8781 29.9937L26.2453 30.2397H20.9367L20.9133 28.3999H24.9211C25.7336 28.3999 26.4094 28.2593 26.9485 27.978C27.4875 27.689 27.8938 27.3022 28.1672 26.8179C28.4406 26.3335 28.5774 25.7983 28.5774 25.2124C28.5774 24.5562 28.4485 23.9819 28.1906 23.4897C27.9328 22.9976 27.5266 22.6187 26.9719 22.353C26.425 22.0796 25.718 21.9429 24.8508 21.9429H21.4641V37.1538H19.2024V20.0913ZM29.175 37.1538L25.0266 29.4194L27.3821 29.4077L31.5891 37.0132V37.1538H29.175ZM38.925 37.3882C38.0422 37.3882 37.2414 37.2397 36.5227 36.9429C35.8117 36.6382 35.1985 36.2124 34.6828 35.6655C34.175 35.1187 33.7844 34.4702 33.511 33.7202C33.2375 32.9702 33.1008 32.1499 33.1008 31.2593V30.7671C33.1008 29.7358 33.2531 28.8179 33.5578 28.0132C33.8625 27.2007 34.2766 26.5132 34.8 25.9507C35.3235 25.3882 35.9172 24.9624 36.5813 24.6733C37.2453 24.3843 37.9328 24.2397 38.6438 24.2397C39.55 24.2397 40.3313 24.396 40.9875 24.7085C41.6516 25.021 42.1946 25.4585 42.6164 26.021C43.0383 26.5757 43.3508 27.2319 43.5539 27.9897C43.7571 28.7397 43.8586 29.5601 43.8586 30.4507V31.4233H34.3899V29.6538H41.6906V29.4897C41.6594 28.9272 41.5422 28.3804 41.3391 27.8491C41.1438 27.3179 40.8313 26.8804 40.4016 26.5366C39.9719 26.1929 39.386 26.021 38.6438 26.021C38.1516 26.021 37.6985 26.1265 37.2844 26.3374C36.8703 26.5405 36.5149 26.8452 36.218 27.2515C35.9211 27.6577 35.6906 28.1538 35.5266 28.7397C35.3625 29.3257 35.2805 30.0015 35.2805 30.7671V31.2593C35.2805 31.8608 35.3625 32.4272 35.5266 32.9585C35.6985 33.4819 35.9446 33.9429 36.2649 34.3413C36.593 34.7397 36.9875 35.0522 37.4485 35.2788C37.9172 35.5054 38.4485 35.6187 39.0422 35.6187C39.8078 35.6187 40.4563 35.4624 40.9875 35.1499C41.5188 34.8374 41.9836 34.4194 42.3821 33.896L43.6946 34.939C43.4211 35.353 43.0735 35.7476 42.6516 36.1226C42.2297 36.4976 41.7102 36.8022 41.093 37.0366C40.4836 37.271 39.761 37.3882 38.925 37.3882ZM53.8664 34.9858V28.4585C53.8664 27.9585 53.7649 27.5249 53.5617 27.1577C53.3664 26.7827 53.0696 26.4937 52.6711 26.2905C52.2727 26.0874 51.7805 25.9858 51.1946 25.9858C50.6477 25.9858 50.1672 26.0796 49.7531 26.2671C49.3469 26.4546 49.0266 26.7007 48.7922 27.0054C48.5656 27.3101 48.4524 27.6382 48.4524 27.9897H46.2844C46.2844 27.5366 46.4016 27.0874 46.636 26.6421C46.8703 26.1968 47.2063 25.7944 47.6438 25.4351C48.0891 25.0679 48.6203 24.7788 49.2375 24.5679C49.8625 24.3491 50.5578 24.2397 51.3235 24.2397C52.2453 24.2397 53.0578 24.396 53.761 24.7085C54.4719 25.021 55.0266 25.4937 55.425 26.1265C55.8313 26.7515 56.0344 27.5366 56.0344 28.4819V34.3882C56.0344 34.8101 56.0696 35.2593 56.1399 35.7358C56.218 36.2124 56.3313 36.6226 56.4797 36.9663V37.1538H54.218C54.1086 36.9038 54.0227 36.5718 53.9602 36.1577C53.8977 35.7358 53.8664 35.3452 53.8664 34.9858ZM54.2414 29.4663L54.2649 30.9897H52.0735C51.4563 30.9897 50.9055 31.0405 50.4211 31.1421C49.9367 31.2358 49.5305 31.3804 49.2024 31.5757C48.8742 31.771 48.6242 32.0171 48.4524 32.314C48.2805 32.603 48.1946 32.9429 48.1946 33.3335C48.1946 33.7319 48.2844 34.0952 48.4641 34.4233C48.6438 34.7515 48.9133 35.0132 49.2727 35.2085C49.6399 35.396 50.0891 35.4897 50.6203 35.4897C51.2844 35.4897 51.8703 35.3491 52.3781 35.0679C52.886 34.7866 53.2883 34.4429 53.5852 34.0366C53.8899 33.6304 54.0539 33.2358 54.0774 32.853L55.0031 33.896C54.9485 34.2241 54.8 34.5874 54.5578 34.9858C54.3156 35.3843 53.9914 35.7671 53.5852 36.1343C53.1867 36.4937 52.7102 36.7944 52.1555 37.0366C51.6086 37.271 50.9914 37.3882 50.3039 37.3882C49.4446 37.3882 48.6906 37.2202 48.0422 36.8843C47.4016 36.5483 46.9016 36.0991 46.5422 35.5366C46.1906 34.9663 46.0149 34.3296 46.0149 33.6265C46.0149 32.9468 46.1477 32.3491 46.4133 31.8335C46.6789 31.3101 47.0617 30.8765 47.5617 30.5327C48.0617 30.1812 48.6633 29.9155 49.3664 29.7358C50.0696 29.5562 50.8547 29.4663 51.7219 29.4663H54.2414ZM67.4367 34.6929V19.1538H69.6164V37.1538H67.6242L67.4367 34.6929ZM58.9055 30.9546V30.7085C58.9055 29.7397 59.0227 28.8608 59.2571 28.0718C59.4992 27.2749 59.8391 26.5913 60.2766 26.021C60.7219 25.4507 61.2492 25.0132 61.8586 24.7085C62.4758 24.396 63.1633 24.2397 63.9211 24.2397C64.718 24.2397 65.4133 24.3804 66.0071 24.6616C66.6086 24.9351 67.1164 25.3374 67.5305 25.8687C67.9524 26.3921 68.2844 27.0249 68.5266 27.7671C68.7688 28.5093 68.9367 29.3491 69.0305 30.2866V31.3647C68.9446 32.2944 68.7766 33.1304 68.5266 33.8726C68.2844 34.6147 67.9524 35.2476 67.5305 35.771C67.1164 36.2944 66.6086 36.6968 66.0071 36.978C65.4055 37.2515 64.7024 37.3882 63.8977 37.3882C63.1555 37.3882 62.4758 37.228 61.8586 36.9077C61.2492 36.5874 60.7219 36.1382 60.2766 35.5601C59.8391 34.9819 59.4992 34.3022 59.2571 33.521C59.0227 32.7319 58.9055 31.8765 58.9055 30.9546ZM61.0852 30.7085V30.9546C61.0852 31.5874 61.1477 32.1812 61.2727 32.7358C61.4055 33.2905 61.6086 33.7788 61.8821 34.2007C62.1555 34.6226 62.5031 34.9546 62.925 35.1968C63.3469 35.4312 63.8508 35.5483 64.4367 35.5483C65.1555 35.5483 65.7453 35.396 66.2063 35.0913C66.675 34.7866 67.05 34.3843 67.3313 33.8843C67.6125 33.3843 67.8313 32.8413 67.9875 32.2554V29.4312C67.8938 29.0015 67.7571 28.5874 67.5774 28.189C67.4055 27.7827 67.1789 27.4233 66.8977 27.1108C66.6242 26.7905 66.2844 26.5366 65.8781 26.3491C65.4797 26.1616 65.0071 26.0679 64.4602 26.0679C63.8664 26.0679 63.3547 26.1929 62.925 26.4429C62.5031 26.6851 62.1555 27.021 61.8821 27.4507C61.6086 27.8726 61.4055 28.3647 61.2727 28.9272C61.1477 29.4819 61.0852 30.0757 61.0852 30.7085ZM76.5539 35.8413L80.0813 24.4741H82.4016L77.3156 39.1108C77.1985 39.4233 77.0422 39.7593 76.8469 40.1187C76.6594 40.4858 76.4172 40.8335 76.1203 41.1616C75.8235 41.4897 75.4641 41.7554 75.0422 41.9585C74.6281 42.1694 74.132 42.2749 73.5539 42.2749C73.382 42.2749 73.1633 42.2515 72.8977 42.2046C72.632 42.1577 72.4445 42.1187 72.3352 42.0874L72.3235 40.3296C72.386 40.3374 72.4836 40.3452 72.6164 40.353C72.757 40.3687 72.8547 40.3765 72.9094 40.3765C73.4016 40.3765 73.8195 40.3101 74.1633 40.1772C74.507 40.0522 74.7961 39.8374 75.0305 39.5327C75.2727 39.2358 75.4797 38.8257 75.6516 38.3022L76.5539 35.8413ZM73.9641 24.4741L77.257 34.3179L77.8195 36.603L76.261 37.3999L71.5969 24.4741H73.9641Z" fill="white"/>
</svg>
