<svg width="129" height="58" viewBox="0 0 129 58" fill="none" xmlns="http://www.w3.org/2000/svg">
<path d="M93.3197 3.15381H6.3374C4.68055 3.15381 3.3374 4.49696 3.3374 6.15381V51.8461C3.3374 53.503 4.68055 54.8461 6.33741 54.8461H93.2626C93.9684 54.8461 94.6484 54.5999 95.189 54.1462C105.397 45.5794 124.54 29.6415 125.621 29.2509C126.706 28.8591 106.269 12.5076 95.165 3.78895C94.6372 3.37458 93.9907 3.15381 93.3197 3.15381Z" fill="#FAD7A0" stroke="#F39C12" stroke-width="6"/>
<path d="M105.798 29.3486C105.798 32.8863 102.69 35.8766 98.6996 35.8766C94.7091 35.8766 91.6011 32.8863 91.6011 29.3486C91.6011 25.8108 94.7091 22.8206 98.6996 22.8206C102.69 22.8206 105.798 25.8108 105.798 29.3486Z" fill="white" stroke="#F39C12" stroke-width="2"/>
<path d="M34.2639 19.9375V37H32.0021V19.9375H34.2639ZM41.4123 27.6133V29.4648H33.7717V27.6133H41.4123ZM42.5724 19.9375V21.7891H33.7717V19.9375H42.5724ZM46.8029 26.3125V37H44.6349V24.3203H46.7443L46.8029 26.3125ZM50.7639 24.25L50.7521 26.2656C50.5724 26.2266 50.4006 26.2031 50.2365 26.1953C50.0803 26.1797 49.9006 26.1719 49.6974 26.1719C49.1974 26.1719 48.756 26.25 48.3732 26.4062C47.9904 26.5625 47.6662 26.7812 47.4006 27.0625C47.1349 27.3438 46.924 27.6797 46.7678 28.0703C46.6193 28.4531 46.5217 28.875 46.4748 29.3359L45.8654 29.6875C45.8654 28.9219 45.9396 28.2031 46.0881 27.5312C46.2443 26.8594 46.4826 26.2656 46.8029 25.75C47.1232 25.2266 47.5295 24.8203 48.0217 24.5312C48.5217 24.2344 49.1154 24.0859 49.8029 24.0859C49.9592 24.0859 50.1389 24.1055 50.342 24.1445C50.5451 24.1758 50.6857 24.2109 50.7639 24.25ZM57.7951 37.2344C56.9123 37.2344 56.1115 37.0859 55.3928 36.7891C54.6818 36.4844 54.0685 36.0586 53.5529 35.5117C53.0451 34.9648 52.6545 34.3164 52.381 33.5664C52.1076 32.8164 51.9709 31.9961 51.9709 31.1055V30.6133C51.9709 29.582 52.1232 28.6641 52.4279 27.8594C52.7326 27.0469 53.1467 26.3594 53.6701 25.7969C54.1935 25.2344 54.7873 24.8086 55.4514 24.5195C56.1154 24.2305 56.8029 24.0859 57.5139 24.0859C58.4201 24.0859 59.2014 24.2422 59.8576 24.5547C60.5217 24.8672 61.0646 25.3047 61.4865 25.8672C61.9084 26.4219 62.2209 27.0781 62.424 27.8359C62.6271 28.5859 62.7287 29.4062 62.7287 30.2969V31.2695H53.2599V29.5H60.5607V29.3359C60.5295 28.7734 60.4123 28.2266 60.2092 27.6953C60.0139 27.1641 59.7014 26.7266 59.2717 26.3828C58.842 26.0391 58.256 25.8672 57.5139 25.8672C57.0217 25.8672 56.5685 25.9727 56.1545 26.1836C55.7404 26.3867 55.3849 26.6914 55.0881 27.0977C54.7912 27.5039 54.5607 28 54.3967 28.5859C54.2326 29.1719 54.1506 29.8477 54.1506 30.6133V31.1055C54.1506 31.707 54.2326 32.2734 54.3967 32.8047C54.5685 33.3281 54.8146 33.7891 55.1349 34.1875C55.4631 34.5859 55.8576 34.8984 56.3185 35.125C56.7873 35.3516 57.3185 35.4648 57.9123 35.4648C58.6779 35.4648 59.3264 35.3086 59.8576 34.9961C60.3889 34.6836 60.8537 34.2656 61.2521 33.7422L62.5646 34.7852C62.2912 35.1992 61.9435 35.5938 61.5217 35.9688C61.0998 36.3438 60.5803 36.6484 59.9631 36.8828C59.3537 37.1172 58.631 37.2344 57.7951 37.2344ZM70.5217 37.2344C69.6389 37.2344 68.8381 37.0859 68.1193 36.7891C67.4084 36.4844 66.7951 36.0586 66.2795 35.5117C65.7717 34.9648 65.381 34.3164 65.1076 33.5664C64.8342 32.8164 64.6974 31.9961 64.6974 31.1055V30.6133C64.6974 29.582 64.8498 28.6641 65.1545 27.8594C65.4592 27.0469 65.8732 26.3594 66.3967 25.7969C66.9201 25.2344 67.5139 24.8086 68.1779 24.5195C68.842 24.2305 69.5295 24.0859 70.2404 24.0859C71.1467 24.0859 71.9279 24.2422 72.5842 24.5547C73.2482 24.8672 73.7912 25.3047 74.2131 25.8672C74.6349 26.4219 74.9474 27.0781 75.1506 27.8359C75.3537 28.5859 75.4553 29.4062 75.4553 30.2969V31.2695H65.9865V29.5H73.2873V29.3359C73.256 28.7734 73.1389 28.2266 72.9357 27.6953C72.7404 27.1641 72.4279 26.7266 71.9982 26.3828C71.5685 26.0391 70.9826 25.8672 70.2404 25.8672C69.7482 25.8672 69.2951 25.9727 68.881 26.1836C68.467 26.3867 68.1115 26.6914 67.8146 27.0977C67.5178 27.5039 67.2873 28 67.1232 28.5859C66.9592 29.1719 66.8771 29.8477 66.8771 30.6133V31.1055C66.8771 31.707 66.9592 32.2734 67.1232 32.8047C67.2951 33.3281 67.5412 33.7891 67.8615 34.1875C68.1896 34.5859 68.5842 34.8984 69.0451 35.125C69.5139 35.3516 70.0451 35.4648 70.6389 35.4648C71.4045 35.4648 72.0529 35.3086 72.5842 34.9961C73.1154 34.6836 73.5803 34.2656 73.9787 33.7422L75.2912 34.7852C75.0178 35.1992 74.6701 35.5938 74.2482 35.9688C73.8264 36.3438 73.3068 36.6484 72.6896 36.8828C72.0803 37.1172 71.3576 37.2344 70.5217 37.2344Z" fill="black"/>
</svg>
